<?xml version="1.0" encoding="utf-8"?>
<!-- Generator: Adobe Illustrator 16.0.4, SVG Export Plug-In . SVG Version: 6.00 Build 0)  -->
<!DOCTYPE svg PUBLIC "-//W3C//DTD SVG 1.1//EN" "http://www.w3.org/Graphics/SVG/1.1/DTD/svg11.dtd">
<svg version="1.1" id="Layer_1" xmlns="http://www.w3.org/2000/svg" xmlns:xlink="http://www.w3.org/1999/xlink" x="0px" y="0px"
	 width="153.958px" height="54.235px" viewBox="4.041 0 153.958 54.235" enable-background="new 4.041 0 153.958 54.235"
	 xml:space="preserve">
<path fill="#E0E0E0" d="M113.954,18.896v15.898l0,0"/>
<path fill="#868686" d="M113.954,19.654v15.141l0,0"/>
<path fill="#E0E0E0" d="M158,45.488c0,4.832-3.916,8.748-8.748,8.748H12.789c-4.831,0-8.748-3.916-8.748-8.748V8.748
	C4.041,3.916,7.958,0,12.789,0h136.463C154.084,0,158,3.916,158,8.748V45.488z"/>
<path fill="#868686" d="M158,45.488c0,4.832-3.916,8.748-8.748,8.748H14.538c-4.831,0-8.748-3.916-8.748-8.748v-34.99
	c0-4.832,3.917-8.748,8.748-8.748h134.713c4.832,0,8.748,3.916,8.748,8.748V45.488z"/>
<g>
	<path fill="#F8F8F8" d="M156.251,45.488c0,3.865-3.134,6.998-6.999,6.998H12.789c-3.865,0-6.998-3.133-6.998-6.998V8.748
		c0-3.865,3.133-6.998,6.998-6.998h136.463c3.865,0,6.999,3.133,6.999,6.998V45.488z"/>
	<linearGradient id="SVGID_1_" gradientUnits="userSpaceOnUse" x1="81.0208" y1="1.7498" x2="81.0208" y2="52.4861">
		<stop  offset="0" style="stop-color:#FBFBFB"/>
		<stop  offset="1" style="stop-color:#F2F2F2"/>
	</linearGradient>
	<path fill="url(#SVGID_1_)" d="M156.251,45.488c0,3.865-3.134,6.998-6.999,6.998H12.789c-3.865,0-6.998-3.133-6.998-6.998V8.748
		c0-3.865,3.133-6.998,6.998-6.998h136.463c3.865,0,6.999,3.133,6.999,6.998V45.488z"/>
</g>
<g>
	<path fill="#2D5F9B" d="M49.697,14.432c-1.47,0-10.39,0-10.39,0c-3.537,0-3.646,2.746-3.646,3.371
		c0,0.627-0.053,12.785-0.053,17.682c0,4.65,4.242,4.297,4.242,4.297c0.617,0,2.768,0,9.303,0c11.804,0,12.566-9.303,12.566-11.858
		c0-0.897,0-1.116,0-1.96C61.311,15.818,53.042,14.432,49.697,14.432z M47.086,32.845h-2.284l-0.028-11.451h2.448
		c0,0,5.085-0.407,5.085,5.577S47.086,32.845,47.086,32.845z"/>
	<path fill="#2D5F9B" d="M23.286,26.889l9.465-3.753l-0.055,12.762c0,0,0.137,4.342-4.65,4.342c-4.787,0-4.75-4.043-4.75-4.043
		L23.286,26.889z"/>
	<path fill="#EB640F" d="M32.751,20.036l-9.465,3.754l0.055-5.452c0,0-0.137-4.341,4.65-4.341c4.788,0,4.75,4.042,4.75,4.042
		L32.751,20.036z"/>
</g>
<g>
	<path fill="#25538E" d="M66.591,27.082h5.515v1.932h-5.515V27.082z"/>
	<path fill="#25538E" d="M78.402,26.971h-1.008v9.069h-2.098V16.445h2.098v9.125l0.981-0.391l5.094-8.734h2.407l-5.124,8.454
		l-0.979,0.895l1.148,1.121l5.682,9.126h-2.659L78.402,26.971z"/>
	<path fill="#25538E" d="M97.358,30.554h-5.526l-1.563,5.486h-2.07l5.906-19.903h1.148l5.906,19.903h-2.213L97.358,30.554z
		 M92.389,28.735h4.464l-1.701-6.084l-0.517-2.958H94.58l-0.544,3.014L92.389,28.735z"/>
	<path fill="#25538E" d="M111.633,30.554h-5.525l-1.563,5.486h-2.071l5.906-19.903h1.148l5.906,19.903h-2.212L111.633,30.554z
		 M106.664,28.735h4.464l-1.701-6.084l-0.516-2.958h-0.057l-0.543,3.014L106.664,28.735z"/>
	<path fill="#25538E" d="M117.571,16.641c0.615-0.149,1.292-0.256,2.028-0.323c0.737-0.065,1.414-0.097,2.029-0.097
		c0.728,0,1.418,0.089,2.072,0.267c0.653,0.178,1.222,0.475,1.707,0.895c0.485,0.42,0.873,0.971,1.162,1.652
		c0.288,0.682,0.434,1.534,0.434,2.561c0,1.55-0.321,2.79-0.965,3.723c-0.645,0.933-1.499,1.559-2.562,1.876l1.062,1.035
		l3.863,7.811h-2.435l-4.2-8.538l-2.1-0.42v8.958h-2.098V16.641z M119.669,25.683h1.68c1.064,0,1.905-0.327,2.521-0.981
		c0.614-0.652,0.924-1.65,0.924-2.995c0-1.025-0.258-1.875-0.771-2.548c-0.513-0.671-1.272-1.006-2.28-1.006
		c-0.375,0-0.761,0.014-1.162,0.041c-0.401,0.029-0.706,0.07-0.911,0.126V25.683z"/>
	<path fill="#25538E" d="M140.892,18.377h-4.814V36.04h-2.1V18.377h-4.815v-1.933h11.729V18.377z"/>
</g>
</svg>
