<?xml version="1.0" encoding="utf-8"?>
<!-- Generator: Adobe Illustrator 16.0.4, SVG Export Plug-In . SVG Version: 6.00 Build 0)  -->
<!DOCTYPE svg PUBLIC "-//W3C//DTD SVG 1.1//EN" "http://www.w3.org/Graphics/SVG/1.1/DTD/svg11.dtd">
<svg version="1.1" id="Layer_1" xmlns="http://www.w3.org/2000/svg" xmlns:xlink="http://www.w3.org/1999/xlink" x="0px" y="0px"
	 width="163.142px" height="57.471px" viewBox="0 0 163.142 57.471" enable-background="new 0 0 163.142 57.471"
	 xml:space="preserve">
<path fill="#E0E0E0" d="M163.142,48.201c0,5.12-4.149,9.27-9.27,9.27H9.27c-5.119,0-9.27-4.149-9.27-9.27V9.27
	C0,4.149,4.15,0,9.27,0h144.603c5.12,0,9.27,4.149,9.27,9.27V48.201z"/>
<path fill="#868686" d="M163.142,48.201c0,5.12-4.149,9.27-9.27,9.27H11.124c-5.119,0-9.27-4.149-9.27-9.27V11.124
	c0-5.12,4.15-9.27,9.27-9.27h142.749c5.12,0,9.27,4.149,9.27,9.27V48.201z"/>
<g>
	<path fill="#F8F8F8" d="M161.288,48.201c0,4.095-3.32,7.415-7.416,7.415H9.27c-4.095,0-7.416-3.32-7.416-7.415V9.27
		c0-4.095,3.32-7.416,7.416-7.416h144.603c4.096,0,7.416,3.32,7.416,7.416V48.201z"/>
	<linearGradient id="SVGID_1_" gradientUnits="userSpaceOnUse" x1="81.5713" y1="1.854" x2="81.5713" y2="55.6167">
		<stop  offset="0" style="stop-color:#FBFBFB"/>
		<stop  offset="1" style="stop-color:#F2F2F2"/>
	</linearGradient>
	<path fill="url(#SVGID_1_)" d="M161.288,48.201c0,4.095-3.32,7.415-7.416,7.415H9.27c-4.095,0-7.416-3.32-7.416-7.415V9.27
		c0-4.095,3.32-7.416,7.416-7.416h144.603c4.096,0,7.416,3.32,7.416,7.416V48.201z"/>
</g>
<g>
	<path fill="#2D5F9B" d="M131.804,15.293c-1.558,0-11.01,0-11.01,0c-3.747,0-3.863,2.909-3.863,3.571
		c0,0.665-0.057,13.548-0.057,18.736c0,4.929,4.496,4.554,4.496,4.554c0.653,0,2.933,0,9.857,0c12.509,0,13.315-9.858,13.315-12.566
		c0-0.95,0-1.183,0-2.076C144.11,16.761,135.348,15.293,131.804,15.293z M129.037,34.804h-2.421l-0.028-12.134h2.594
		c0,0,5.388-0.431,5.388,5.909C134.569,34.92,129.037,34.804,129.037,34.804z"/>
	<path fill="#2D5F9B" d="M103.817,28.492l10.03-3.978l-0.059,13.524c0,0,0.146,4.601-4.928,4.601c-5.072,0-5.033-4.284-5.033-4.284
		L103.817,28.492z"/>
	<path fill="#EB640F" d="M113.848,21.231l-10.03,3.978l0.059-5.777c0,0-0.146-4.601,4.928-4.601c5.072,0,5.033,4.283,5.033,4.283
		L113.848,21.231z"/>
</g>
<g>
	<path fill="#25538E" d="M35.164,24.544l0.268-3.143h-0.12l-0.949,2.937l-4.182,9.016h-0.742l-4.39-9.016l-0.92-2.937h-0.118
		l0.415,3.143v13.646h-2.134V17.426h1.868l5.013,10.203l0.741,2.434h0.06l0.711-2.463l4.747-10.174h1.957v20.764h-2.225V24.544z"/>
	<path fill="#25538E" d="M40.563,27.809c0-3.52,0.563-6.19,1.689-8.01c1.128-1.819,2.848-2.729,5.161-2.729
		c1.246,0,2.305,0.252,3.174,0.755c0.871,0.506,1.577,1.223,2.122,2.151c0.543,0.931,0.943,2.057,1.2,3.382s0.386,2.808,0.386,4.45
		c0,3.52-0.568,6.188-1.705,8.007c-1.138,1.82-2.862,2.73-5.177,2.73c-1.226,0-2.273-0.253-3.143-0.757
		c-0.871-0.505-1.582-1.22-2.136-2.15c-0.554-0.929-0.954-2.057-1.202-3.382C40.686,30.933,40.563,29.448,40.563,27.809z
		 M42.905,27.809c0,1.166,0.083,2.273,0.252,3.322c0.168,1.048,0.431,1.968,0.786,2.757c0.356,0.791,0.82,1.425,1.394,1.899
		c0.574,0.474,1.266,0.711,2.076,0.711c1.483,0,2.611-0.711,3.382-2.136c0.771-1.423,1.157-3.608,1.157-6.554
		c0-1.148-0.085-2.245-0.252-3.294c-0.168-1.048-0.431-1.973-0.785-2.773c-0.356-0.8-0.822-1.439-1.396-1.913
		c-0.571-0.475-1.274-0.712-2.105-0.712c-1.463,0-2.58,0.712-3.351,2.137C43.291,22.676,42.905,24.861,42.905,27.809z"/>
	<path fill="#25538E" d="M67.735,22.142c0,0.515-0.06,1.028-0.177,1.543c-0.12,0.514-0.309,0.999-0.565,1.453
		c-0.257,0.455-0.577,0.86-0.963,1.217c-0.386,0.354-0.856,0.623-1.408,0.8v0.12c0.474,0.098,0.929,0.263,1.363,0.488
		c0.435,0.229,0.819,0.545,1.156,0.949c0.337,0.405,0.604,0.899,0.802,1.484c0.198,0.583,0.296,1.28,0.296,2.091
		c0,1.066-0.169,1.991-0.504,2.771c-0.337,0.782-0.796,1.42-1.379,1.914s-1.257,0.86-2.018,1.098
		c-0.762,0.238-1.567,0.356-2.417,0.356c-0.278,0-0.599,0-0.965,0c-0.365,0-0.757-0.015-1.171-0.046
		c-0.415-0.028-0.825-0.068-1.231-0.117c-0.405-0.049-0.776-0.123-1.111-0.223V17.604c0.592-0.119,1.289-0.219,2.091-0.297
		c0.801-0.079,1.666-0.119,2.595-0.119c0.672,0,1.345,0.065,2.017,0.193c0.674,0.129,1.276,0.369,1.811,0.727
		c0.534,0.356,0.963,0.855,1.289,1.497C67.572,20.248,67.735,21.094,67.735,22.142z M60.883,26.651c0.277,0,0.594-0.011,0.949-0.03
		c0.356-0.021,0.653-0.05,0.891-0.089c0.731-0.297,1.359-0.775,1.883-1.439c0.525-0.661,0.785-1.478,0.785-2.446
		c0-0.653-0.088-1.202-0.266-1.647c-0.178-0.443-0.42-0.795-0.726-1.052c-0.309-0.257-0.669-0.439-1.083-0.549
		c-0.416-0.108-0.851-0.162-1.306-0.162c-0.514,0-0.979,0.014-1.394,0.043c-0.417,0.031-0.733,0.065-0.951,0.105v7.267H60.883z
		 M62.1,36.381c0.534,0,1.028-0.085,1.482-0.254c0.455-0.166,0.855-0.42,1.202-0.755c0.347-0.337,0.618-0.747,0.815-1.23
		c0.197-0.485,0.297-1.054,0.297-1.706c0-0.811-0.123-1.47-0.371-1.974c-0.246-0.505-0.568-0.894-0.964-1.171
		c-0.396-0.277-0.845-0.465-1.351-0.563c-0.503-0.099-1.022-0.148-1.557-0.148h-1.988v7.594c0.12,0.039,0.272,0.068,0.46,0.088
		c0.188,0.021,0.396,0.04,0.623,0.061c0.229,0.02,0.46,0.034,0.697,0.043C61.684,36.375,61.902,36.381,62.1,36.381z"/>
	<path fill="#25538E" d="M71.592,17.426h2.225v20.764h-2.225V17.426z"/>
	<path fill="#25538E" d="M78.042,17.426h2.226v20.764h-2.226V17.426z"/>
	<path fill="#25538E" d="M94.273,38.189h-9.996V17.426h2.224v18.718h7.772V38.189z"/>
	<path fill="#25538E" d="M93.023,28.697h5.845v2.048h-5.845V28.697z"/>
</g>
</svg>
