<svg xmlns="http://www.w3.org/2000/svg" xmlns:xlink="http://www.w3.org/1999/xlink" width="286" height="99" viewBox="0 0 286 99">
    <defs>
        <linearGradient id="b" x1="45.313%" x2="33.822%" y1="69.296%" y2="31.188%">
            <stop offset="0%" stop-color="#6A2545"/>
            <stop offset="100%" stop-color="#B03B6F"/>
        </linearGradient>
        <path id="a" d="M75.617 68.105a21.83 21.83 0 0 0 2.601 5.096c9.291 13.456 23.041 10.092 28.616 9.344 5.574-.747 13.007-1.121 17.094 2.243 4.088 3.364 6.352 6.033 14.441 8.532 2.602.373 1.911 1.185.796 1.933-8.547 5.606-15.608 3.737-24.527 0-8.92-3.738-12.264-.748-18.21 0-19.325 2.99-35.676 1.121-49.055-5.606a46.935 46.935 0 0 1-2.198-1.804c-3.08 3.497-5.197 5.593-6.35 6.289-1.857 1.12-8.546 4.11-17.094 4.11-5.698 0-10.53-.622-14.493-1.868-3.634-1.163-5.616-1.91-5.946-2.242-.744-.748-1.292-2.03 2.742-2.435 14.52-1.922 27.079-6.737 32.47-14.862-2.721-5.544-3.682-11.738-2.88-18.584C35.38 43.895 40.09 42 51.232 30.431c7.665-8.521 1.458-17.002-1.547-20.327a304.822 304.822 0 0 1-1.301-1.454c-1.174-1.359-1.17-1.35-2.76-.563a299.293 299.293 0 0 1-4.228 2.039c-.25.117-.938.46-.842.097.214-.822 6.12-3.842 6.014-4.07-.106-.23-7.504 1.596-7.67 1.608-.165.013-.315-.439-.108-.51.206-.076 2.191-.754 3.292-1.119 1.094-.362 3.5-1.141 3.283-1.262-.216-.124-8.341-.632-8.458-.64-.03-.002-.052-.028-.067-.066v-.297c.015-.038.039-.066.07-.073 1.92-.462 8.359-.207 8.507-.363.148-.157-.193-1.103-.231-1.657-.069-1.026.35-1.762 1.12-1.774h.04c.092.001.19.013.292.036 1.866.41 3.704 1.01 5.535 1.605 1.665.54 2.59.639 3.883.313 1.292-.326 2.034-.737 3.231-.651 4.516.009 9.529 2.096 14.536 6s12.49 16.84 9.198 25.28c-4.97 12.74-5.177 10.025-7.662 17.126-.18.814-.354 1.581-.517 2.312-.919 4.871-1.048 10.056.381 14.88.044.117.09.234.136.352.12.309.206.593.257.852z"/>
        <linearGradient id="c" x1="17.248%" x2="58.688%" y1="34.281%" y2="89.871%">
            <stop offset="0%" stop-color="#712849"/>
            <stop offset="100%" stop-color="#B03B6F"/>
        </linearGradient>
    </defs>
    <g fill="none" fill-rule="evenodd">
        <path fill="#6D2345" d="M11.01 74.552c5.379.506 9.413-.127 12.103-1.9 2.69-1.774 5.877-3.811 9.563-6.111.27 2.164.538 3.787.807 4.869.403 2.029.807 2.434 1.614 5.274-.807.812-3.631 4.87-8.875 5.275-5.783.474-13.782-2.626-16.54-4.463-2.841-1.992-2.399-2.973 1.327-2.944zM119.949 81.971c.716-1.631 2.553-2.582 5.511-2.852 3.228-.406 5.46.79 7.262.406 1.626-.347 6.05-2.435 7.664-1.623.807.811-2.294 5.238-5.244 6.897-3.424 1.926-6.456 2.787-6.858 2.435-.402-.353-3.371-2.99-5.244-4.058-.647-.369-1.678-.77-3.091-1.205z"/>
        <use fill="url(#b)" xlink:href="#a"/>
        <path fill="url(#c)" d="M140.16 94.148c-9.194 1.408-11.705 1.1-14.296-.017-5.142-2.01-9.086-7.663-25.24-5.574-16.152 2.089-46.802-2.089-54.671-15.873-5.247-9.19-.586-18.872 13.981-29.046 5.452-3.472 9.006-9.315 10.663-17.53C72.25 17.904 64.062 9.215 46.03.039c.087-.024.18-.037.278-.039h.038c.093.001.19.013.293.036 1.866.41 3.704 1.01 5.535 1.605 1.665.54 2.59.639 3.883.313 1.292-.326 2.034-.737 3.231-.651 4.516.009 9.529 2.096 14.536 6s12.49 16.84 9.198 25.28c-4.97 12.74-5.177 10.025-7.662 17.126-.18.814-.354 1.581-.517 2.312-.919 4.871-1.048 10.056.381 14.88.044.117.09.234.136.352.12.309.206.593.257.852a21.83 21.83 0 0 0 2.601 5.096c9.291 13.456 23.041 10.092 28.616 9.344 5.574-.747 13.007-1.121 17.094 2.243 4.088 3.364 6.352 6.033 14.441 8.532 1.303.187 1.78.484 1.792.828z"/>
        <g fill-rule="nonzero">
            <path fill="#9B9B9B" d="M131.303 61.382c.828 0 1.472.205 1.933.616.46.411.69.982.69 1.712 0 .776-.23 1.37-.69 1.78-.46.412-1.105.617-1.933.617h-30.857c-.828 0-1.484-.228-1.967-.685-.483-.456-.725-1.027-.725-1.712s.253-1.392.76-2.123l27.611-39.035h-25.679c-.828 0-1.472-.205-1.933-.616-.46-.41-.69-.981-.69-1.712 0-.776.23-1.37.69-1.78.46-.411 1.105-.617 1.933-.617h30.097c.829 0 1.485.229 1.968.685.483.457.725 1.027.725 1.712 0 .64-.254 1.324-.76 2.055l-27.68 39.103h26.507zm34.967-3.013c.506 0 .943.205 1.312.616.368.41.552.936.552 1.575 0 1.141-.806 2.192-2.416 3.15a20.989 20.989 0 0 1-5.247 2.157c-1.84.48-3.635.72-5.384.72-5.2 0-9.307-1.53-12.322-4.589-3.014-3.059-4.521-7.282-4.521-12.669 0-3.424.667-6.449 2.002-9.074 1.334-2.625 3.21-4.668 5.626-6.129 2.416-1.461 5.165-2.191 8.249-2.191 4.372 0 7.846 1.415 10.423 4.245 2.577 2.831 3.866 6.666 3.866 11.505 0 .914-.184 1.576-.552 1.986-.369.411-.967.617-1.795.617h-22.228c.414 7.852 4.165 11.779 11.252 11.779 1.795 0 3.337-.24 4.625-.72 1.289-.479 2.67-1.13 4.142-1.951 1.196-.685 2.002-1.027 2.416-1.027zm-12.08-22.12c-2.946 0-5.304.913-7.076 2.74-1.772 1.825-2.819 4.405-3.14 7.738h19.535c-.092-3.379-.944-5.97-2.554-7.773-1.611-1.803-3.866-2.705-6.765-2.705zm35.732-4.314c8.422 0 12.632 4.382 12.632 13.148V63.71c0 .822-.241 1.484-.724 1.986-.484.502-1.14.754-1.968.754-.828 0-1.495-.252-2.002-.754-.506-.502-.759-1.164-.759-1.986v-3.287c-.874 1.963-2.209 3.481-4.004 4.554-1.794 1.073-3.865 1.61-6.212 1.61-2.163 0-4.154-.434-5.971-1.302-1.818-.867-3.256-2.077-4.315-3.63a8.92 8.92 0 0 1-1.587-5.135c0-2.511.644-4.463 1.932-5.856 1.289-1.392 3.406-2.396 6.351-3.013 2.945-.616 7.041-.924 12.287-.924h1.52v-2.26c0-2.74-.565-4.748-1.692-6.027-1.128-1.278-2.957-1.917-5.488-1.917-3.13 0-6.305.844-9.526 2.534-1.243.776-2.117 1.164-2.623 1.164a1.777 1.777 0 0 1-1.38-.616c-.37-.411-.553-.936-.553-1.576 0-.639.195-1.198.587-1.677.39-.48 1.024-.97 1.898-1.473 1.61-.913 3.44-1.632 5.488-2.157a24.52 24.52 0 0 1 6.109-.787zm-2.278 30.269c2.761 0 5.028-.925 6.8-2.774 1.771-1.849 2.657-4.234 2.657-7.156v-1.986h-1.242c-4.05 0-7.134.171-9.25.513-2.117.343-3.625.913-4.522 1.712-.897.8-1.346 1.975-1.346 3.527 0 1.78.656 3.253 1.967 4.417 1.312 1.165 2.957 1.747 4.936 1.747zm27.518 4.246c-.829 0-1.507-.24-2.037-.72-.529-.479-.794-1.152-.794-2.02V20.224c0-.867.265-1.54.794-2.02.53-.48 1.208-.72 2.037-.72.782 0 1.438.24 1.967.72.53.48.794 1.153.794 2.02V63.71c0 .868-.265 1.541-.794 2.02-.53.48-1.185.72-1.967.72z"/>
            <path fill="#B03B6F" d="M230.737 66.45c-.828 0-1.507-.24-2.036-.72-.53-.479-.794-1.152-.794-2.02v-28.9c0-.867.265-1.54.794-2.02.53-.479 1.208-.718 2.036-.718.829 0 1.496.24 2.002.719.506.479.76 1.152.76 2.02v28.9c0 .912-.254 1.597-.76 2.054-.506.456-1.173.685-2.002.685zm0-41.57c-1.104 0-2.002-.319-2.692-.958-.69-.639-1.035-1.484-1.035-2.534 0-1.004.345-1.826 1.035-2.465.69-.64 1.588-.959 2.692-.959 1.105 0 2.002.32 2.692.959.69.64 1.036 1.46 1.036 2.465 0 1.05-.345 1.895-1.036 2.534-.69.64-1.587.959-2.692.959zm16.473 41.227c-.874 0-1.576-.251-2.105-.753-.53-.502-.794-1.164-.794-1.986V20.567c0-.822.265-1.484.794-1.986.529-.503 1.23-.754 2.105-.754h13.461c7.777 0 13.795 2.089 18.051 6.266 4.257 4.178 6.386 10.124 6.386 17.84 0 7.716-2.14 13.674-6.42 17.874-4.28 4.2-10.286 6.3-18.017 6.3h-13.46zm13.116-4.794c12.61 0 18.914-6.46 18.914-19.38 0-12.875-6.305-19.312-18.914-19.312H249.97v38.692h10.355z"/>
        </g>
    </g>
</svg>
